<svg xmlns="http://www.w3.org/2000/svg" viewBox="0 0 32 32" role="img" aria-label="Eva's Space">
  <rect x="0.5" y="0.5" width="31" height="31" rx="9" fill="#fbf4e9" stroke="#e7d8c2"/>
  <!-- stem + leaves -->
  <path d="M16 17 L16 25" stroke="#3e6f2a" stroke-width="1.7" stroke-linecap="round"/>
  <path d="M16 22 C12.6 22 10.4 24.4 10.4 27.4 C14 27.4 16.1 25 16 22Z" fill="#3e6f2a"/>
  <path d="M16 20.5 C19.4 20.5 21.6 22.9 21.6 25.9 C18 25.9 15.9 23.5 16 20.5Z" fill="#4f7a35"/>
  <!-- rose bloom -->
  <circle cx="16" cy="13" r="7.4" fill="#d51d2c"/>
  <path d="M16 13 C16 11.9 16.9 11 18 11 C19.7 11 21 12.3 21 14 C21 16.5 18.9 18.5 16.4 18.5 C13.1 18.5 10.4 15.8 10.4 12.5 C10.4 8.4 13.8 5 17.9 5"
        fill="none" stroke="#7c0f1a" stroke-width="1.4" stroke-linecap="round"/>
  <circle cx="16.4" cy="13" r="1.7" fill="#ff8f89"/>
</svg>
